# xmcd
#
# Track frame offsets:
# 150
# 12786
# 23929
# 40563
# 53297
# 67174
# 79301
# 92624
# 107770
# 121146
# 136456
#
# Disc length: 1968 seconds
#
#
# Revision: 0
# Processed by: cddbd v1.5.1PL0 Copyright (c) Steve Scherf et al.
# Submitted via: FreeRIP 2.942 
#
DISCID=8307ae0b
DTITLE=Os 3 do Nordeste - 30 anos de Pe de Serra
DYEAR=2000
DGENRE=
TTITLE0=Forro sem frescura-Forro casamenteiro-Forro metaleiro
TTITLE1=Cama fofinha
TTITLE2=O falador
TTITLE3=Gamado nela
TTITLE4=Morena louca
TTITLE5=eu piso e voce pisa
TTITLE6=Forro do poeirao
TTITLE7=E proibido cochilar-Da boca pra fora-Amor com cafe
TTITLE8=Estrela de fogo
TTITLE9=Desafio
TTITLE10=Botando quente
EXTD=
EXTT0=
EXTT1=
EXTT2=
EXTT3=
EXTT4=
EXTT5=
EXTT6=
EXTT7=
EXTT8=
EXTT9=
EXTT10=
PLAYORDER=
